<?xml version="1.0" encoding="UTF-8" standalone="no"?>
<!-- Generator: Adobe Illustrator 19.0.0, SVG Export Plug-In . SVG Version: 6.00 Build 0)  -->

<svg
   xmlns:dc="http://purl.org/dc/elements/1.1/"
   xmlns:cc="http://creativecommons.org/ns#"
   xmlns:rdf="http://www.w3.org/1999/02/22-rdf-syntax-ns#"
   xmlns:svg="http://www.w3.org/2000/svg"
   xmlns="http://www.w3.org/2000/svg"
   xmlns:sodipodi="http://sodipodi.sourceforge.net/DTD/sodipodi-0.dtd"
   xmlns:inkscape="http://www.inkscape.org/namespaces/inkscape"
   version="1.1"
   id="Layer_1"
   x="0px"
   y="0px"
   viewBox="0 0 512 512"
   style="enable-background:new 0 0 512 512;"
   xml:space="preserve"
   sodipodi:docname="rocket.svg"
   inkscape:version="0.92.1 r15371"><metadata
     id="metadata55"><rdf:RDF><cc:Work
         rdf:about=""><dc:format>image/svg+xml</dc:format><dc:type
           rdf:resource="http://purl.org/dc/dcmitype/StillImage" /><dc:title></dc:title></cc:Work></rdf:RDF></metadata><defs
     id="defs53" /><sodipodi:namedview
     pagecolor="#ffffff"
     bordercolor="#666666"
     borderopacity="1"
     objecttolerance="10"
     gridtolerance="10"
     guidetolerance="10"
     inkscape:pageopacity="0"
     inkscape:pageshadow="2"
     inkscape:window-width="1920"
     inkscape:window-height="986"
     id="namedview51"
     showgrid="false"
     inkscape:zoom="0.921875"
     inkscape:cx="477.08961"
     inkscape:cy="188.39302"
     inkscape:window-x="-11"
     inkscape:window-y="-11"
     inkscape:window-maximized="1"
     inkscape:current-layer="Layer_1" /><polygon
     style="fill:#3c5d76"
     points="97.882,289.882 97.882,382.173 52.706,427.35 52.706,466.824 263.529,466.824 263.529,165.647 "
     id="polygon2"
     transform="translate(0,24)" /><polygon
     style="fill:#1e2e3b"
     points="414.118,382.173 414.118,289.882 248.471,165.647 248.471,466.824 459.294,466.824 459.294,427.35 "
     id="polygon4"
     transform="translate(0,24)" /><path
     style="fill:#cce9f9"
     d="m 256,24 c 0,0 -82.82422,45.175703 -82.82422,120.4707 V 490.82422 H 338.82227 V 536 h 0.002 V 144.4707 C 338.82422,69.175703 256,24 256,24 Z"
     id="path6"
     inkscape:connector-curvature="0" /><path
     style="fill:#93c7ef"
     d="m 256,24 v 466.82422 h 82.82422 V 144.4707 C 338.82422,69.175703 256,24 256,24 Z"
     id="path8"
     inkscape:connector-curvature="0" /><g
     id="g14"
     transform="translate(0,24)"><path
       style="fill:#1e2e3b"
       d="m 286.118,120.471 c 0,-16.634 -13.485,-30.118 -30.118,-30.118 v 0 c -16.632,0 -30.118,13.484 -30.118,30.118 z"
       id="path10"
       inkscape:connector-curvature="0" /><rect
       x="233.412"
       y="361.41199"
       style="fill:#1e2e3b"
       width="45.175999"
       height="105.412"
       id="rect12" /></g><g
     id="g20"
     transform="translate(0,24)" /><g
     id="g22"
     transform="translate(0,24)" /><g
     id="g24"
     transform="translate(0,24)" /><g
     id="g26"
     transform="translate(0,24)" /><g
     id="g28"
     transform="translate(0,24)" /><g
     id="g30"
     transform="translate(0,24)" /><g
     id="g32"
     transform="translate(0,24)" /><g
     id="g34"
     transform="translate(0,24)" /><g
     id="g36"
     transform="translate(0,24)" /><g
     id="g38"
     transform="translate(0,24)" /><g
     id="g40"
     transform="translate(0,24)" /><g
     id="g42"
     transform="translate(0,24)" /><g
     id="g44"
     transform="translate(0,24)" /><g
     id="g46"
     transform="translate(0,24)" /><g
     id="g48"
     transform="translate(0,24)" /></svg>